REM DIRINDEX 1\2,1\3,1\4,1\5
REM DIRNAME folder01,folder02,folder03,folder04,folder05
TITLE ""
FILE "103.mp3" MP3
  TRACK 01 AUDIO
    TITLE "0:"
    INDEX 01 00:00:00
  TRACK 02 AUDIO
    TITLE "2:cjc046_2264"
    INDEX 01 00:00:15
  TRACK 03 AUDIO
    TITLE "0:"
    INDEX 01 00:01:34
  TRACK 04 AUDIO
    TITLE "3:cjc046_2265"
    INDEX 01 00:01:54
  TRACK 05 AUDIO
    TITLE "0:"
    INDEX 01 00:02:65
  TRACK 06 AUDIO
    TITLE "4:cjc046_2266"
    INDEX 01 00:03:06
  TRACK 07 AUDIO
    TITLE "0:"
    INDEX 01 00:04:23
  TRACK 08 AUDIO
    TITLE "2:cjc046_2267"
    INDEX 01 00:05:34
  TRACK 09 AUDIO
    TITLE "0:"
    INDEX 01 00:06:35
  TRACK 10 AUDIO
    TITLE "3:cjc046_2268"
    INDEX 01 00:06:59
  TRACK 11 AUDIO
    TITLE "0:"
    INDEX 01 00:07:70
  TRACK 12 AUDIO
    TITLE "4:cjc046_2269"
    INDEX 01 00:08:09
  TRACK 13 AUDIO
    TITLE "0:"
    INDEX 01 00:09:10
  TRACK 14 AUDIO
    TITLE "2:cjc046_2270"
    INDEX 01 00:10:21
  TRACK 15 AUDIO
    TITLE "0:"
    INDEX 01 00:11:19
  TRACK 16 AUDIO
    TITLE "3:cjc046_2271"
    INDEX 01 00:11:37
  TRACK 17 AUDIO
    TITLE "0:"
    INDEX 01 00:12:40
  TRACK 18 AUDIO
    TITLE "4:cjc046_2272"
    INDEX 01 00:12:58
  TRACK 19 AUDIO
    TITLE "0:"
    INDEX 01 00:13:55
  TRACK 20 AUDIO
    TITLE "2:cjc046_2273"
    INDEX 01 00:14:62
  TRACK 21 AUDIO
    TITLE "0:"
    INDEX 01 00:15:70
  TRACK 22 AUDIO
    TITLE "3:cjc046_2274"
    INDEX 01 00:16:12
  TRACK 23 AUDIO
    TITLE "0:"
    INDEX 01 00:17:16
  TRACK 24 AUDIO
    TITLE "4:cjc046_2275"
    INDEX 01 00:17:25
  TRACK 25 AUDIO
    TITLE "0:"
    INDEX 01 00:18:31
  TRACK 26 AUDIO
    TITLE "2:cjc046_2276"
    INDEX 01 00:19:38
  TRACK 27 AUDIO
    TITLE "0:"
    INDEX 01 00:20:53
  TRACK 28 AUDIO
    TITLE "3:cjc046_2277"
    INDEX 01 00:21:04
  TRACK 29 AUDIO
    TITLE "0:"
    INDEX 01 00:23:10
  TRACK 30 AUDIO
    TITLE "4:cjc046_2278"
    INDEX 01 00:23:26
  TRACK 31 AUDIO
    TITLE "0:"
    INDEX 01 00:24:41
  TRACK 32 AUDIO
    TITLE "2:cjc046_2279"
    INDEX 01 00:25:48
  TRACK 33 AUDIO
    TITLE "0:"
    INDEX 01 00:26:56
  TRACK 34 AUDIO
    TITLE "3:cjc046_2280"
    INDEX 01 00:27:02
  TRACK 35 AUDIO
    TITLE "0:"
    INDEX 01 00:28:04
  TRACK 36 AUDIO
    TITLE "4:cjc046_2281"
    INDEX 01 00:28:21
  TRACK 37 AUDIO
    TITLE "0:"
    INDEX 01 00:29:25
  TRACK 38 AUDIO
    TITLE "2:cjc046_2282"
    INDEX 01 00:30:36
  TRACK 39 AUDIO
    TITLE "0:"
    INDEX 01 00:31:37
  TRACK 40 AUDIO
    TITLE "3:cjc046_2283"
    INDEX 01 00:31:57
  TRACK 41 AUDIO
    TITLE "0:"
    INDEX 01 00:32:70
  TRACK 42 AUDIO
    TITLE "4:cjc046_2284"
    INDEX 01 00:33:09
  TRACK 43 AUDIO
    TITLE "0:"
    INDEX 01 00:34:10
  TRACK 44 AUDIO
    TITLE "2:cjc046_2285"
    INDEX 01 00:35:17
  TRACK 45 AUDIO
    TITLE "0:"
    INDEX 01 00:36:38
  TRACK 46 AUDIO
    TITLE "3:cjc046_2286"
    INDEX 01 00:36:64
  TRACK 47 AUDIO
    TITLE "0:"
    INDEX 01 00:38:49
  TRACK 48 AUDIO
    TITLE "4:cjc046_2287"
    INDEX 01 00:38:65
  TRACK 49 AUDIO
    TITLE "0:"
    INDEX 01 00:40:11
  TRACK 50 AUDIO
    TITLE "2:cjc046_2288"
    INDEX 01 00:41:18
  TRACK 51 AUDIO
    TITLE "0:"
    INDEX 01 00:42:25
  TRACK 52 AUDIO
    TITLE "3:cjc046_2289"
    INDEX 01 00:42:53
  TRACK 53 AUDIO
    TITLE "0:"
    INDEX 01 00:44:52
  TRACK 54 AUDIO
    TITLE "4:cjc046_2290"
    INDEX 01 00:44:63
  TRACK 55 AUDIO
    TITLE "0:"
    INDEX 01 00:45:73
  TRACK 56 AUDIO
    TITLE "2:cjc046_2291"
    INDEX 01 00:47:05
  TRACK 57 AUDIO
    TITLE "0:"
    INDEX 01 00:48:02
  TRACK 58 AUDIO
    TITLE "3:cjc046_2292"
    INDEX 01 00:48:30
  TRACK 59 AUDIO
    TITLE "0:"
    INDEX 01 00:49:43
  TRACK 60 AUDIO
    TITLE "4:cjc046_2293"
    INDEX 01 00:49:57
  TRACK 61 AUDIO
    TITLE "0:"
    INDEX 01 00:50:56
  TRACK 62 AUDIO
    TITLE "2:cjc046_2294"
    INDEX 01 00:51:63
  TRACK 63 AUDIO
    TITLE "0:"
    INDEX 01 00:53:04
  TRACK 64 AUDIO
    TITLE "3:cjc046_2295"
    INDEX 01 00:53:25
  TRACK 65 AUDIO
    TITLE "0:"
    INDEX 01 00:54:58
  TRACK 66 AUDIO
    TITLE "4:cjc046_2296"
    INDEX 01 00:55:03
  TRACK 67 AUDIO
    TITLE "0:"
    INDEX 01 00:56:16
